<?xml version="1.0" encoding="UTF-8" standalone="no"?>
<!-- Created with Inkscape (http://www.inkscape.org/) -->

<svg
   xmlns:dc="http://purl.org/dc/elements/1.1/"
   xmlns:cc="http://creativecommons.org/ns#"
   xmlns:rdf="http://www.w3.org/1999/02/22-rdf-syntax-ns#"
   xmlns:svg="http://www.w3.org/2000/svg"
   xmlns="http://www.w3.org/2000/svg"
   xmlns:sodipodi="http://sodipodi.sourceforge.net/DTD/sodipodi-0.dtd"
   xmlns:inkscape="http://www.inkscape.org/namespaces/inkscape"
   version="1.1"
   id="svg2"
   xml:space="preserve"
   width="289.77734"
   height="296.66666"
   viewBox="0 0 289.77734 296.66666"
   sodipodi:docname="samo_logo.svg"
   inkscape:version="0.92.2 (5c3e80d, 2017-08-06)"><metadata
     id="metadata8"><rdf:RDF><cc:Work
         rdf:about=""><dc:format>image/svg+xml</dc:format><dc:type
           rdf:resource="http://purl.org/dc/dcmitype/StillImage" /><dc:title></dc:title></cc:Work></rdf:RDF></metadata><defs
     id="defs6"><clipPath
       clipPathUnits="userSpaceOnUse"
       id="clipPath18"><path
         d="M 0,222.5 H 217.333 V 0 H 0 Z"
         id="path16"
         inkscape:connector-curvature="0" /></clipPath></defs><sodipodi:namedview
     pagecolor="#ffffff"
     bordercolor="#666666"
     borderopacity="1"
     objecttolerance="10"
     gridtolerance="10"
     guidetolerance="10"
     inkscape:pageopacity="0"
     inkscape:pageshadow="2"
     inkscape:window-width="1920"
     inkscape:window-height="1018"
     id="namedview4"
     showgrid="false"
     inkscape:zoom="2"
     inkscape:cx="238.72423"
     inkscape:cy="190.41918"
     inkscape:window-x="-8"
     inkscape:window-y="-8"
     inkscape:window-maximized="1"
     inkscape:current-layer="g10" /><g
     id="g10"
     inkscape:groupmode="layer"
     inkscape:label="samo_logo"
     transform="matrix(1.3333333,0,0,-1.3333333,0,296.66667)"><g
       id="g12"
       transform="translate(1.125,-26.625001)"><g
         id="g14"
         clip-path="url(#clipPath18)"><g
           id="g20"
           transform="translate(193.6499,55.3408)"><path
             d="m 0,0 c 0,-3.326 -2.721,-6.047 -6.047,-6.047 h -157.954 c -3.326,0 -6.047,2.721 -6.047,6.047 v 157.95 c 0,3.325 2.721,6.047 6.047,6.047 H -6.047 c 3.326,0 6.047,-2.722 6.047,-6.047 z"
             style="fill:#cf102d;fill-opacity:1;fill-rule:nonzero;stroke:none"
             id="path22"
             inkscape:connector-curvature="0" /></g><g
           id="g24"
           transform="translate(190.8921,3.2217)" /><g
           id="g28"
           transform="translate(105.4409,11.8389)" /><g
           id="g32"
           transform="translate(177.8032,13.2822)" /><g
           id="g36"
           transform="translate(84.2197,10.9912)" /><g
           id="g40"
           transform="translate(44.1812,3.4248)" /><g
           id="g44"
           transform="translate(21.1377,27.876)" /><g
           id="g48"
           transform="translate(134.7437,19.0186)" /><g
           id="g52"
           transform="translate(149.9243,27.751)" /><g
           id="g56"
           transform="translate(139.6753,124.7827)"><path
             d="m 0,0 h -4.689 c -1.627,0 -2.942,-1.518 -2.942,-3.387 v -18.68 l -21.258,-0.002 v 48.926 c 0,1.872 -1.318,3.387 -2.944,3.387 h -4.69 c -1.622,0 -2.941,-1.515 -2.941,-3.387 v -77.809 c 0,-1.869 1.319,-3.386 2.941,-3.386 h 4.69 c 1.626,0 2.944,1.517 2.944,3.386 v 18.309 l 21.258,0.002 v -18.311 c 0,-1.869 1.315,-3.386 2.942,-3.386 H 0 c 1.627,0 2.945,1.517 2.945,3.386 V -3.387 C 2.945,-1.518 1.627,0 0,0"
             style="fill:#ffffff;fill-opacity:1;fill-rule:nonzero;stroke:none"
             id="path58"
             inkscape:connector-curvature="0" /></g><g
           id="g60"
           transform="translate(123.2378,183.5024)"><path
             d="M 0,0 C 0,9.655 -4.634,24.859 -6.604,24.838 H -6.606 -6.608 C -8.576,24.859 -13.213,9.655 -13.213,0 c 0.004,-8.324 3.451,-9.797 5.66,-10.058 0.342,-0.048 0.663,-0.06 0.945,-0.057 h 0.002 0.002 c 0.282,-0.003 0.603,0.009 0.945,0.057 C -3.447,-9.797 -0.001,-8.324 0,0"
             style="fill:#ffffff;fill-opacity:1;fill-rule:nonzero;stroke:none"
             id="path62"
             inkscape:connector-curvature="0" /></g><g
           id="g64"
           transform="translate(80.3135,128.4673)"><path
             d="m 0,0 c -9.655,0 -24.859,-4.634 -24.838,-6.604 l 0.001,-0.002 -0.001,-0.002 c -0.021,-1.968 15.183,-6.604 24.838,-6.604 8.325,0.003 9.797,3.45 10.058,5.659 0.048,0.342 0.061,0.663 0.057,0.945 v 0.002 0.002 c 0.004,0.282 -0.009,0.603 -0.057,0.945 C 9.797,-3.447 8.325,-0.001 0,0"
             style="fill:#ffffff;fill-opacity:1;fill-rule:nonzero;stroke:none"
             id="path66"
             inkscape:connector-curvature="0" /></g><g
           id="g68"
           transform="translate(88.0771,167.5356)"><path
             d="m 0,0 c -8.357,4.836 -23.838,8.439 -24.806,6.724 0,0 0.001,0 -10e-4,-0.003 L -24.808,6.72 c -1.004,-1.694 9.833,-13.321 18.191,-18.156 7.207,-4.167 10.208,-1.919 11.54,-0.138 0.213,0.271 0.385,0.544 0.522,0.789 l 10e-4,0.002 0.002,0.003 c 0.143,0.24 0.294,0.525 0.423,0.844 C 6.752,-7.89 7.205,-4.171 0,0"
             style="fill:#ffffff;fill-opacity:1;fill-rule:nonzero;stroke:none"
             id="path70"
             inkscape:connector-curvature="0" /></g><g
           id="g72"
           transform="translate(80.9194,149.3696)"><path
             d="m 0,0 c -9.602,1.02 -25.209,-1.983 -25.397,-3.944 0,0 10e-4,0 10e-4,-0.003 0,0 -10e-4,10e-4 0,-0.002 -0.229,-1.955 14.399,-8.171 24,-9.19 8.279,-0.875 10.107,2.396 10.599,4.566 0.085,0.335 0.131,0.654 0.157,0.934 v 0.002 l 0.001,0.003 c 0.034,0.28 0.055,0.6 0.043,0.945 C 9.377,-4.463 8.278,-0.881 0,0"
             style="fill:#ffffff;fill-opacity:1;fill-rule:nonzero;stroke:none"
             id="path74"
             inkscape:connector-curvature="0" /></g><g
           id="g76"
           transform="translate(103.6826,180.2876)"><path
             d="m 0,0 c -4.817,8.367 -16.419,19.233 -18.116,18.231 0,0 0.001,-0.001 -0.001,-0.002 0,0 -10e-4,0.001 -0.002,0 -1.716,-0.963 1.851,-16.454 6.668,-24.821 4.157,-7.212 7.878,-6.767 9.923,-5.892 0.32,0.128 0.605,0.278 0.847,0.421 l 0.002,0.001 h 0.001 c 0.246,0.138 0.519,0.31 0.792,0.522 C 1.9,-10.211 4.152,-7.216 0,0"
             style="fill:#ffffff;fill-opacity:1;fill-rule:nonzero;stroke:none"
             id="path78"
             inkscape:connector-curvature="0" /></g><g
           id="g80"
           transform="translate(80.3135,107.7979)"><path
             d="m 0,0 c -9.655,0 -24.859,-4.634 -24.838,-6.604 l 0.001,-0.002 -0.001,-0.002 c -0.021,-1.968 15.183,-6.604 24.838,-6.604 8.325,0.003 9.797,3.45 10.058,5.659 0.048,0.342 0.061,0.663 0.057,0.945 v 0.002 0.002 c 0.004,0.282 -0.009,0.603 -0.057,0.945 C 9.797,-3.447 8.325,-0.002 0,0"
             style="fill:#ffffff;fill-opacity:1;fill-rule:nonzero;stroke:none"
             id="path82"
             inkscape:connector-curvature="0" /></g></g></g></g></svg>